<?xml version="1.0" encoding="utf-8"?>
<!-- Generator: Adobe Illustrator 16.0.0, SVG Export Plug-In . SVG Version: 6.00 Build 0)  -->
<!DOCTYPE svg PUBLIC "-//W3C//DTD SVG 1.1//EN" "http://www.w3.org/Graphics/SVG/1.1/DTD/svg11.dtd">
<svg version="1.1" id="Capa_1" xmlns="http://www.w3.org/2000/svg" xmlns:xlink="http://www.w3.org/1999/xlink" x="0px" y="0px"
	 width="226.627px" height="124.278px" viewBox="0 0 226.627 124.278" enable-background="new 0 0 226.627 124.278"
	 xml:space="preserve">
<path fill="#F7C600" d="M198.265,116.958c0,4.041-3.274,7.315-7.313,7.315L7.315,124.278c-4.04,0-7.315-3.275-7.315-7.314V7.314
	C0,3.275,3.275,0,7.315,0h183.637c4.039,0,7.313,3.275,7.313,7.314V116.958z"/>
<path fill="#C60091" d="M204.695,116.963c0,4.039-3.274,7.314-7.315,7.314H21.937c-4.041,0-7.315-3.275-7.315-7.314V7.314
	C14.622,3.275,17.896,0,21.937,0h175.442c4.041,0,7.315,3.275,7.315,7.314V116.963z"/>
<path fill="#481273" d="M226.627,116.963c0,4.039-3.274,7.314-7.313,7.314H36.556c-4.039,0-7.314-3.275-7.314-7.314V7.314
	C29.242,3.275,32.517,0,36.556,0h182.759c4.038,0,7.313,3.275,7.313,7.314V116.963z"/>
<path fill="#FFFFFF" d="M62.088,58.491c-0.955,0-1.595-0.404-1.928-1.209l-9.346-26.281c-0.183-0.515-0.165-0.936,0.057-1.263
	c0.219-0.331,0.585-0.498,1.098-0.498h6.048c0.953,0,1.559,0.459,1.815,1.377l3.463,11.547l2.035,7.584h0.166l1.978-7.584
	l3.464-11.547c0.294-0.918,0.899-1.377,1.813-1.377h6.104c0.512,0,0.871,0.167,1.072,0.498c0.203,0.327,0.213,0.748,0.026,1.263
	l-9.346,26.281c-0.329,0.805-0.97,1.209-1.922,1.209H62.088z"/>
<path fill="#FFFFFF" d="M104.256,51.181c0.953-0.441,1.612-0.13,1.982,0.931l0.986,2.914c0.257,0.807-0.052,1.431-0.934,1.87
	c-3.006,1.505-6.34,2.252-10.007,2.252c-5.093,0-9.041-1.327-11.846-3.98c-2.804-2.663-4.208-6.426-4.208-11.3
	c0-4.876,1.303-8.644,3.906-11.299c2.602-2.659,6.137-3.986,10.609-3.986c4.326,0,7.7,1.281,10.117,3.846
	c2.422,2.567,3.633,5.994,3.633,10.282v2.695c0,0.988-0.519,1.483-1.542,1.483H89.08c0.331,1.872,1.183,3.327,2.559,4.37
	c1.374,1.049,3.181,1.57,5.416,1.57C99.548,52.829,101.946,52.277,104.256,51.181 M88.807,41.776h11.713v-0.383
	c0-2.052-0.477-3.649-1.431-4.784c-0.952-1.137-2.346-1.706-4.176-1.706C91.209,34.903,89.175,37.195,88.807,41.776"/>
<path fill="#FFFFFF" d="M139.772,56.952c0,1.03-0.496,1.539-1.484,1.539h-5.938c-1.023,0-1.543-0.509-1.543-1.539V41.226
	c0-1.758-0.328-3.059-0.986-3.904c-0.661-0.843-1.778-1.264-3.353-1.264c-1.727,0-3.028,0.522-3.905,1.568
	c-0.879,1.044-1.318,2.464-1.318,4.261v15.065c0,1.03-0.514,1.539-1.54,1.539h-5.939c-0.988,0-1.483-0.509-1.483-1.539V30.726
	c0-0.988,0.495-1.486,1.483-1.486h5.333c0.92,0,1.428,0.403,1.537,1.21l0.439,2.475c1.871-2.897,4.859-4.342,8.963-4.342
	c6.488,0,9.734,3.646,9.734,10.939V56.952z"/>
<path fill="#FFFFFF" d="M164.296,54.862c-0.81,1.32-2.045,2.356-3.713,3.108c-1.671,0.748-3.421,1.124-5.255,1.124
	c-3.846,0-6.815-1.282-8.904-3.847c-2.091-2.566-3.134-6.363-3.134-11.379c0-5.06,1.043-8.872,3.134-11.439
	c2.089-2.565,5.059-3.846,8.904-3.846c1.763,0,3.457,0.357,5.087,1.068c1.633,0.716,2.813,1.698,3.547,2.943V21.158
	c0-0.989,0.493-1.483,1.485-1.483h5.938c1.027,0,1.538,0.494,1.538,1.483v35.794c0,1.029-0.511,1.539-1.538,1.539h-5.281
	c-0.877,0-1.389-0.404-1.537-1.21L164.296,54.862z M158.135,35.563c-1.906,0-3.336,0.652-4.289,1.952
	c-0.952,1.302-1.43,3.419-1.43,6.353c0,2.895,0.478,4.989,1.43,6.293c0.953,1.303,2.383,1.951,4.289,1.951
	c3.921,0,5.881-2.749,5.881-8.244C164.016,38.332,162.056,35.563,158.135,35.563"/>
<path fill="#FFFFFF" d="M200.471,51.181c0.953-0.441,1.613-0.13,1.98,0.931l0.988,2.914c0.258,0.807-0.055,1.431-0.935,1.87
	c-3.005,1.505-6.339,2.252-10.006,2.252c-5.097,0-9.042-1.327-11.849-3.98c-2.803-2.663-4.207-6.426-4.207-11.3
	c0-4.876,1.303-8.644,3.904-11.299c2.603-2.659,6.139-3.986,10.612-3.986c4.325,0,7.694,1.281,10.115,3.846
	c2.419,2.567,3.629,5.994,3.629,10.282v2.695c0,0.988-0.513,1.483-1.539,1.483h-17.869c0.33,1.872,1.183,3.327,2.556,4.37
	c1.375,1.049,3.183,1.57,5.416,1.57C195.762,52.829,198.165,52.277,200.471,51.181 M185.022,41.776h11.711v-0.383
	c0-2.052-0.479-3.649-1.431-4.784c-0.952-1.137-2.343-1.706-4.178-1.706C187.422,34.903,185.387,37.195,185.022,41.776"/>
<path fill="#FFFFFF" d="M129.459,100.799c0,1.028-0.495,1.541-1.482,1.541h-5.83c-0.989,0-1.48-0.513-1.48-1.541V84.801
	c0-1.65-0.298-2.888-0.879-3.712c-0.594-0.825-1.561-1.237-2.919-1.237c-1.573,0-2.793,0.517-3.655,1.541
	c-0.86,1.025-1.293,2.381-1.293,4.066v15.34c0,1.028-0.512,1.541-1.541,1.541h-5.825c-1.029,0-1.539-0.513-1.539-1.541V74.575
	c0-0.987,0.51-1.485,1.539-1.485h5.33c0.919,0,1.434,0.403,1.541,1.209l0.44,2.476c1.907-2.897,4.783-4.342,8.631-4.342
	c4.068,0,6.781,1.539,8.136,4.615c2.015-3.076,5.151-4.615,9.405-4.615c6.048,0,9.072,3.59,9.072,10.775v17.592
	c0,1.028-0.494,1.541-1.485,1.541h-5.881c-1.029,0-1.539-0.513-1.539-1.541V84.856c0-3.334-1.285-5.004-3.849-5.004
	c-1.576,0-2.787,0.506-3.627,1.513c-0.847,1.009-1.27,2.317-1.27,3.931V100.799z"/>
<path fill="#FFFFFF" d="M178.01,100.799c0,1.028-0.496,1.541-1.483,1.541h-5.007c-0.879,0-1.391-0.402-1.537-1.211l-0.331-2.418
	c-1.979,2.714-5.204,4.068-9.675,4.068c-2.824,0-5.086-0.731-6.791-2.199c-1.707-1.467-2.557-3.592-2.557-6.377
	c0-1.614,0.303-3.004,0.905-4.178c0.606-1.174,1.403-2.108,2.392-2.806c0.992-0.696,2.328-1.245,4.018-1.647
	c1.686-0.402,3.38-0.687,5.083-0.855c1.704-0.162,3.804-0.264,6.297-0.301V83.37c0-2.745-1.89-4.121-5.663-4.121
	c-2.529,0-5.169,0.515-7.918,1.539c-0.951,0.402-1.578,0.092-1.871-0.936l-1.098-3.408c-0.293-0.842,0-1.465,0.879-1.869
	c3.3-1.43,7.074-2.143,11.328-2.143c8.685,0,13.029,3.48,13.029,10.445V100.799z M169.324,89.202
	c-3.556,0.072-6.14,0.41-7.752,1.017c-1.614,0.604-2.42,1.731-2.42,3.38c0,1.026,0.364,1.85,1.098,2.473
	c0.734,0.625,1.742,0.935,3.027,0.935c2.015,0,3.528-0.501,4.532-1.511c1.009-1.008,1.515-2.338,1.515-3.986V89.202z"/>
<path fill="#FFFFFF" d="M192.29,102.947c-3.666,0-6.891-0.532-9.677-1.597c-0.916-0.365-1.246-0.971-0.99-1.814l0.937-3.189
	c0.219-0.951,0.844-1.262,1.869-0.934c2.162,0.696,4.268,1.045,6.32,1.045c3.447,0,5.168-0.826,5.168-2.473
	c0-0.808-0.389-1.447-1.179-1.924c-0.789-0.479-2.101-1.01-3.931-1.594c-3.008-1.029-5.039-1.945-6.104-2.75
	c-2.017-1.504-3.024-3.741-3.024-6.709c0-2.859,1.017-5.004,3.051-6.434c2.035-1.43,4.903-2.143,8.604-2.143
	c3.704,0,6.728,0.494,9.073,1.484c0.917,0.362,1.244,0.99,0.988,1.867l-0.937,3.082c-0.29,0.95-0.914,1.283-1.866,0.987
	c-2.016-0.623-3.978-0.933-5.885-0.933c-2.822,0-4.232,0.789-4.232,2.363c0,0.805,0.394,1.445,1.184,1.924
	c0.788,0.476,2.135,1.063,4.04,1.761c1.505,0.547,2.685,1.026,3.547,1.429c0.858,0.402,1.767,0.961,2.722,1.678
	c0.951,0.715,1.65,1.575,2.086,2.584c0.441,1.008,0.661,2.207,0.661,3.6C204.714,100.052,200.575,102.947,192.29,102.947"/>
<path fill="#FFFFFF" d="M167.346,69.391c-0.513,0.513-1.152,0.77-1.921,0.77h-3.341"/>
<path fill="#FFFFFF" d="M163.843,64.13c0.293-0.689,0.839-1.037,1.644-1.037h6.467c0.478,0,0.76,0.188,0.851,0.572
	c0.093,0.385-0.026,0.725-0.356,1.02l-4.656,4.653c-0.514,0.513-1.153,0.771-1.922,0.771h-3.34c-0.404,0-0.688-0.118-0.852-0.359
	c-0.166-0.232-0.175-0.518-0.027-0.848L163.843,64.13z"/>
</svg>
